<svg width="32" height="32" viewBox="0 0 32 32" fill="none" xmlns="http://www.w3.org/2000/svg">
<rect width="32" height="32" rx="16" fill="white"/>
<path d="M14.888 21.216C13.48 21.216 12.712 20.6 12.584 19.368C11.88 20.6 10.992 21.216 9.92 21.216C8.848 21.216 7.992 20.896 7.352 20.256C6.728 19.6 6.416 18.688 6.416 17.52C6.416 15.696 6.864 14.264 7.76 13.224C8.656 12.184 9.816 11.664 11.24 11.664C12.408 11.664 13.184 12.216 13.568 13.32C13.648 12.84 13.736 12.36 13.832 11.88C15.016 11.88 15.896 11.832 16.472 11.736L16.784 11.664L15.128 20.736C15.608 20.688 16.008 20.464 16.328 20.064L16.688 20.352C16.208 20.928 15.608 21.216 14.888 21.216ZM9.128 18.744C9.128 19.464 9.216 19.968 9.392 20.256C9.584 20.528 9.872 20.664 10.256 20.664C10.64 20.664 11.032 20.456 11.432 20.04C11.96 19.496 12.384 18.808 12.704 17.976C12.752 17.768 12.84 17.272 12.968 16.488C13.112 15.688 13.232 15.032 13.328 14.52C13.28 13.912 13.112 13.384 12.824 12.936C12.536 12.488 12.176 12.264 11.744 12.264C10.96 12.264 10.328 12.968 9.848 14.376C9.368 15.768 9.128 17.224 9.128 18.744ZM19.793 12.12C19.393 12.12 19.057 12.256 18.785 12.528C18.513 12.8 18.377 13.12 18.377 13.488C18.377 13.856 18.481 14.232 18.689 14.616L18.257 14.784C18.001 14.464 17.873 14.04 17.873 13.512C17.873 12.984 18.049 12.544 18.401 12.192C18.769 11.84 19.209 11.664 19.721 11.664C20.233 11.664 20.913 11.744 21.761 11.904C22.625 12.048 23.585 12.12 24.641 12.12C25.713 12.104 26.505 12.032 27.017 11.904L20.657 20.376C21.505 20.632 22.433 20.768 23.441 20.784C24.081 20.784 24.633 20.608 25.097 20.256C25.577 19.888 25.889 19.528 26.033 19.176L26.249 18.648L26.657 18.792C26.513 19.368 26.185 19.92 25.673 20.448C25.161 20.96 24.393 21.216 23.369 21.216C22.361 21.216 21.441 21.104 20.609 20.88C19.777 20.656 19.169 20.544 18.785 20.544C18.401 20.544 18.057 20.696 17.753 21H17.321L23.609 12.504C22.777 12.472 22.033 12.4 21.377 12.288C20.721 12.176 20.193 12.12 19.793 12.12Z" fill="#7C3AED"/>
</svg>
