<svg width="60" height="60" viewBox="0 0 60 60" fill="none" xmlns="http://www.w3.org/2000/svg">
<rect width="60" height="60" rx="30" fill="white"/>
<path d="M18.264 39.224C17.4747 39.224 16.728 39.1173 16.024 38.904C15.32 38.6907 14.6907 38.3813 14.136 37.976C13.5813 37.5493 13.1333 37.0267 12.792 36.408C12.472 35.768 12.312 35.0213 12.312 34.168C12.312 33.08 12.5253 32.1947 12.952 31.512C13.3787 30.808 13.9547 30.2747 14.68 29.912C15.4267 29.5493 16.2693 29.304 17.208 29.176C18.1467 29.0267 19.128 28.952 20.152 28.952H23.448C23.448 28.2053 23.3307 27.5653 23.096 27.032C22.8613 26.4773 22.488 26.04 21.976 25.72C21.4853 25.4 20.8453 25.24 20.056 25.24C19.544 25.24 19.064 25.304 18.616 25.432C18.1893 25.5387 17.816 25.72 17.496 25.976C17.1973 26.2107 16.984 26.52 16.856 26.904H12.856C13.0053 26.0293 13.304 25.2827 13.752 24.664C14.2213 24.024 14.7867 23.5013 15.448 23.096C16.1307 22.6907 16.8773 22.392 17.688 22.2C18.4987 21.9867 19.32 21.88 20.152 21.88C22.6053 21.88 24.3867 22.584 25.496 23.992C26.6267 25.4 27.192 27.3733 27.192 29.912V39H23.736L23.64 36.824C23.1493 37.5493 22.5627 38.0827 21.88 38.424C21.1973 38.7653 20.536 38.9787 19.896 39.064C19.256 39.1707 18.712 39.224 18.264 39.224ZM19.032 36.056C19.8853 36.056 20.6427 35.896 21.304 35.576C21.9653 35.256 22.488 34.808 22.872 34.232C23.2773 33.656 23.48 32.9947 23.48 32.248V31.704H20.408C19.896 31.704 19.384 31.7253 18.872 31.768C18.3813 31.7893 17.9333 31.8747 17.528 32.024C17.1227 32.152 16.792 32.3547 16.536 32.632C16.3013 32.9093 16.184 33.304 16.184 33.816C16.184 34.328 16.312 34.744 16.568 35.064C16.8453 35.384 17.1973 35.6293 17.624 35.8C18.072 35.9707 18.5413 36.056 19.032 36.056ZM29.8952 39V35.992L38.7912 25.592H29.8952V22.136H43.8153V25.112L34.8552 35.544H43.8153V39H29.8952Z" fill="#7C3AED"/>
<path d="M48.264 38.788C47.752 38.788 47.312 38.62 46.944 38.284C46.592 37.948 46.416 37.492 46.416 36.916C46.416 36.34 46.6 35.884 46.968 35.548C47.336 35.196 47.776 35.02 48.288 35.02C48.8 35.02 49.232 35.196 49.584 35.548C49.936 35.884 50.112 36.34 50.112 36.916C50.112 37.492 49.936 37.948 49.584 38.284C49.232 38.62 48.792 38.788 48.264 38.788Z" fill="#7C3AED"/>
</svg>
