<svg width="60" height="60" viewBox="0 0 60 60" fill="none" xmlns="http://www.w3.org/2000/svg">
<rect width="60" height="60" rx="30" fill="white"/>
<path d="M28.184 37.288C26.3067 37.288 25.2827 36.4667 25.112 34.824C24.1733 36.4667 22.9893 37.288 21.56 37.288C20.1307 37.288 18.9893 36.8613 18.136 36.008C17.304 35.1333 16.888 33.9173 16.888 32.36C16.888 29.928 17.4853 28.0187 18.68 26.632C19.8747 25.2453 21.4213 24.552 23.32 24.552C24.8773 24.552 25.912 25.288 26.424 26.76C26.5307 26.12 26.648 25.48 26.776 24.84C28.3547 24.84 29.528 24.776 30.296 24.648L30.712 24.552L28.504 36.648C29.144 36.584 29.6773 36.2853 30.104 35.752L30.584 36.136C29.944 36.904 29.144 37.288 28.184 37.288ZM20.504 33.992C20.504 34.952 20.6213 35.624 20.856 36.008C21.112 36.3707 21.496 36.552 22.008 36.552C22.52 36.552 23.0427 36.2747 23.576 35.72C24.28 34.9947 24.8453 34.0773 25.272 32.968C25.336 32.6907 25.4533 32.0293 25.624 30.984C25.816 29.9173 25.976 29.0427 26.104 28.36C26.04 27.5493 25.816 26.8453 25.432 26.248C25.048 25.6507 24.568 25.352 23.992 25.352C22.9467 25.352 22.104 26.2907 21.464 28.168C20.824 30.024 20.504 31.9653 20.504 33.992ZM34.724 25.16C34.1907 25.16 33.7427 25.3413 33.38 25.704C33.0173 26.0667 32.836 26.4933 32.836 26.984C32.836 27.4747 32.9747 27.976 33.252 28.488L32.676 28.712C32.3347 28.2853 32.164 27.72 32.164 27.016C32.164 26.312 32.3987 25.7253 32.868 25.256C33.3587 24.7867 33.9453 24.552 34.628 24.552C35.3107 24.552 36.2173 24.6587 37.348 24.872C38.5 25.064 39.78 25.16 41.188 25.16C42.6173 25.1387 43.6733 25.0427 44.356 24.872L35.876 36.168C37.0067 36.5093 38.244 36.6907 39.588 36.712C40.4413 36.712 41.1773 36.4773 41.796 36.008C42.436 35.5173 42.852 35.0373 43.044 34.568L43.332 33.864L43.876 34.056C43.684 34.824 43.2467 35.56 42.564 36.264C41.8813 36.9467 40.8573 37.288 39.492 37.288C38.148 37.288 36.9213 37.1387 35.812 36.84C34.7027 36.5413 33.892 36.392 33.38 36.392C32.868 36.392 32.4093 36.5947 32.004 37H31.428L39.812 25.672C38.7027 25.6293 37.7107 25.5333 36.836 25.384C35.9613 25.2347 35.2573 25.16 34.724 25.16Z" fill="#7C3AED"/>
</svg>
